<svg xmlns="http://www.w3.org/2000/svg" viewBox="0 0 22 23"><path d="M21.94 16.09a1.63 1.63 0 0 0-1.55-1.59.41.41 0 0 1-.33-.2 1.22 1.22 0 0 0-1.06-.63 1.78 1.78 0 0 0-.43.06h-.1a.42.42 0 0 1-.34-.17 1.22 1.22 0 0 0-1.07-.56h-.39a.52.52 0 0 1-.52-.44V10a1 1 0 1 0-1.93 0v6.38c0 .5-.28.86-.71.86a.58.58 0 0 1-.33-.1 16.26 16.26 0 0 0-1.83-.87 1 1 0 0 0-.41-.09 1 1 0 0 0-.4 1.9c1.13.76 2.58 1.18 3.13 2 .35.54 1.08 2.05 1.36 2.65a.41.41 0 0 0 .38.23h4.45a.41.41 0 0 0 .41-.37l.24-1.84a.48.48 0 0 1 .06-.18c1.23-1.92 1.58-3.19 1.37-4.48z" fill="#ffc635"/><path d="M4.17 20a4.73 4.73 0 0 1-.93-.1 4.08 4.08 0 0 1-1.16-.46 3.71 3.71 0 0 1-.71-.52 4 4 0 0 1-.29-.29 3.71 3.71 0 0 1-.52-.71 4.08 4.08 0 0 1-.46-1.16 4.73 4.73 0 0 1-.1-.93v-4.16a2.5 2.5 0 0 1 2.5 2.5v1.66a1.58 1.58 0 0 0 0 .38 2.49 2.49 0 0 1 0 1.3 2.49 2.49 0 0 1 1.3-.05 1.58 1.58 0 0 0 .38 0h1.65A2.5 2.5 0 0 1 8.33 20zM8.33 0a2.5 2.5 0 0 1-2.5 2.5H4.17a1.58 1.58 0 0 0-.38 0 2.49 2.49 0 0 1-1.3 0 2.49 2.49 0 0 1 0 1.3 1.58 1.58 0 0 0 0 .38v1.65A2.5 2.5 0 0 1 0 8.33V4.17a4.73 4.73 0 0 1 .1-.93 4.08 4.08 0 0 1 .46-1.16 3.71 3.71 0 0 1 .52-.71 4 4 0 0 1 .29-.29 3.71 3.71 0 0 1 .71-.52A4.08 4.08 0 0 1 3.24.1a4.73 4.73 0 0 1 .93-.1zm3.34 0a2.5 2.5 0 0 0 2.5 2.5h1.66a1.58 1.58 0 0 1 .38 0 2.49 2.49 0 0 0 1.3 0 2.49 2.49 0 0 0-.05 1.3 1.58 1.58 0 0 1 0 .38v1.65A2.5 2.5 0 0 0 20 8.33V4.17a4.73 4.73 0 0 0-.1-.93 4.08 4.08 0 0 0-.46-1.16 3.71 3.71 0 0 0-.52-.71 4 4 0 0 0-.29-.29 3.71 3.71 0 0 0-.71-.52A4.08 4.08 0 0 0 16.76.1a4.73 4.73 0 0 0-.93-.1z" fill="#ffc635" fill-rule="evenodd"/></svg>