<svg xmlns="http://www.w3.org/2000/svg" viewBox="0 0 24 24"><path d="M.67 2.49a5.17 5.17 0 0 0-.55 1.4A5 5 0 0 0 0 5v5a3 3 0 0 0 3-3V5a2.14 2.14 0 0 1 0-.45A3 3 0 0 0 3 3a3 3 0 0 0 1.56.06A2.14 2.14 0 0 1 5 3h2a3 3 0 0 0 3-3H5a5 5 0 0 0-1.11.12 5.17 5.17 0 0 0-1.4.55 5.19 5.19 0 0 0-.85.63c-.12.11-.23.22-.34.34a5.19 5.19 0 0 0-.63.85zM14 0a3 3 0 0 0 3 3h2a2.14 2.14 0 0 1 .45 0A3 3 0 0 0 21 3a3 3 0 0 0 0 1.55A2.14 2.14 0 0 1 21 5v2a3 3 0 0 0 3 3V5a5 5 0 0 0-.12-1.11 5.17 5.17 0 0 0-.55-1.4 5.19 5.19 0 0 0-.63-.85c-.11-.12-.22-.23-.34-.34A4.88 4.88 0 0 0 20.11.12 5 5 0 0 0 19 0zm10 14a3 3 0 0 0-3 3v2a2.14 2.14 0 0 1-.05.45A3 3 0 0 0 21 21a3 3 0 0 0-1.55 0 2.14 2.14 0 0 1-.45 0h-2a3 3 0 0 0-3 3h5a5 5 0 0 0 1.11-.12 4.88 4.88 0 0 0 2.25-1.18c.12-.11.23-.22.34-.34a4.88 4.88 0 0 0 1.18-2.25A5 5 0 0 0 24 19zM10 24a3 3 0 0 0-3-3H5a2.14 2.14 0 0 1-.45 0A3 3 0 0 0 3 21a3 3 0 0 0 .06-1.56A2.14 2.14 0 0 1 3 19v-2a3 3 0 0 0-3-3v5a5 5 0 0 0 .12 1.11 4.88 4.88 0 0 0 1.18 2.25c.11.12.22.23.34.34a5.19 5.19 0 0 0 .85.63 5.17 5.17 0 0 0 1.4.55A5 5 0 0 0 5 24z" fill="#ffc635" fill-rule="evenodd"/><rect x="8" y="11" width="8" height="6" rx="1" fill="#ffc635"/><path d="M14 12V9a1 1 0 0 0-1-1h-2a1 1 0 0 0-1 1v3" fill="none" stroke="#ffc635" stroke-width="2"/></svg>