<svg width="26" height="20" fill="none" xmlns="http://www.w3.org/2000/svg"><path d="M22.313 8.75L20.5 6.939V2.5c0-.688-.563-1.25-1.25-1.25H18c-.688 0-1.25.563-1.25 1.25v.691L14.25.694C13.909.37 13.596 0 13 0s-.909.371-1.25.694L3.687 8.75C3.297 9.156 3 9.453 3 10c0 .704.54 1.25 1.25 1.25H5.5v7.5c0 .688.563 1.25 1.25 1.25h3.75v-6.25c0-.688.563-1.25 1.25-1.25h2.5c.688 0 1.25.563 1.25 1.25V20h3.75c.688 0 1.25-.563 1.25-1.25v-7.5h1.25c.71 0 1.25-.546 1.25-1.25 0-.547-.297-.844-.688-1.25z" fill="#FFC635"/><path d="M6 14.333H1M1 12v5.5M1 19v-1.5m0 0h5m14-3.167h5M25 12v5.5m0 1.5v-1.5m0 0h-5" stroke="#FFC635" stroke-width="2" stroke-linecap="round" stroke-linejoin="round"/></svg>