<svg width="23" height="23" fill="none" xmlns="http://www.w3.org/2000/svg"><path d="M19.974 17.553H11.5a2.424 2.424 0 0 0-2.421 2.42 2.423 2.423 0 0 0 2.42 2.422h8.475a2.423 2.423 0 0 0 2.42-2.421 2.423 2.423 0 0 0-2.42-2.421zm0-8.474H11.5A2.423 2.423 0 0 0 9.079 11.5a2.424 2.424 0 0 0 2.42 2.421h8.475a2.423 2.423 0 0 0 2.42-2.421 2.423 2.423 0 0 0-2.42-2.421zm0-8.474H11.5a2.423 2.423 0 0 0-2.421 2.421 2.423 2.423 0 0 0 2.42 2.421h8.475a2.423 2.423 0 0 0 2.42-2.42 2.423 2.423 0 0 0-2.42-2.422zM3.026 23a3.026 3.026 0 1 0 0-6.053 3.026 3.026 0 0 0 0 6.053zm0-8.474a3.026 3.026 0 1 0 0-6.052 3.026 3.026 0 0 0 0 6.052zm0-8.473a3.026 3.026 0 1 0 0-6.053 3.026 3.026 0 0 0 0 6.053z" fill="#000"/></svg>