<svg width="30" height="29" fill="none" xmlns="http://www.w3.org/2000/svg"><path d="M25.52 17.677v8.679l-6.96-1.74V20.94l-2.32-3.264v6.97l-5.8 1.658V7.867l.013-.004c.02-.857.147-1.688.364-2.483l-.914.229a2.329 2.329 0 0 1-1.201-.02l-7.15-2.044A1.219 1.219 0 0 0 0 4.717v19.929a2.32 2.32 0 0 0 1.682 2.23l7.186 2.054c.27.077.555.077.826 0l7.13-2.037a2.34 2.34 0 0 1 1.201-.02l8.304 2.077a1.218 1.218 0 0 0 1.513-1.182V15.827l-2.32 1.85zm-17.4 8.627l-5.8-1.657V6.18l5.8 1.656v18.469z" fill="#000"/><path d="M20.88 0a8.12 8.12 0 0 0-8.12 8.12c0 5.342 5.28 7.825 5.94 8.42.676.608 1.234 1.828 1.46 2.6a.766.766 0 0 0 .72.573.765.765 0 0 0 .721-.573c.225-.771.783-1.992 1.46-2.6.66-.595 5.94-3.078 5.94-8.42A8.12 8.12 0 0 0 20.881 0zm0 10.44a2.32 2.32 0 1 1 0-4.638 2.32 2.32 0 0 1 0 4.639z" fill="#000"/></svg>