<svg width="14" height="14" fill="none" xmlns="http://www.w3.org/2000/svg"><path d="M14 11.057c0 .179-.033.412-.1.7a3.95 3.95 0 0 1-.208.682c-.14.331-.544.683-1.213 1.054-.623.338-1.24.507-1.85.507-.179 0-.353-.012-.522-.035a4.292 4.292 0 0 1-.571-.124 8.102 8.102 0 0 1-.473-.144 38.693 38.693 0 0 1-.552-.204c-.265-.1-.427-.16-.487-.18a9.004 9.004 0 0 1-1.74-.824c-.848-.524-1.725-1.238-2.63-2.143-.905-.905-1.619-1.782-2.143-2.63a9.006 9.006 0 0 1-.825-1.74c-.02-.06-.08-.222-.179-.487-.1-.266-.167-.45-.204-.552a8.107 8.107 0 0 1-.144-.473 4.298 4.298 0 0 1-.124-.571A3.836 3.836 0 0 1 0 3.37c0-.61.169-1.227.507-1.85C.878.851 1.23.447 1.561.308A3.95 3.95 0 0 1 2.242.1c.289-.067.522-.1.701-.1.093 0 .163.01.209.03.12.04.295.291.527.756.073.125.172.304.298.536.126.232.242.443.348.632.106.189.21.366.309.532.02.026.077.11.174.248.096.14.167.257.213.353a.64.64 0 0 1 .07.284c0 .132-.095.298-.283.497a4.847 4.847 0 0 1-.617.547 5.99 5.99 0 0 0-.616.527c-.19.185-.284.338-.284.457 0 .06.017.134.05.224s.061.157.084.204c.024.046.07.126.14.238.07.113.107.176.114.19.504.907 1.08 1.686 1.73 2.336.65.65 1.429 1.226 2.337 1.73l.189.114c.112.07.192.116.238.14.047.023.115.05.204.084a.68.68 0 0 0 .224.05c.12 0 .272-.095.457-.284.186-.189.362-.394.527-.616.166-.222.348-.428.547-.617.199-.188.365-.283.497-.283.093 0 .188.023.284.07.096.046.213.117.353.213l.248.174c.166.1.343.203.532.309.19.106.4.222.632.348.232.126.41.225.536.298.464.232.716.408.756.527.02.046.03.116.03.209z" fill="#fff"/></svg>