<svg width="58" height="58" fill="none" xmlns="http://www.w3.org/2000/svg"><path d="M24.203 30.91v10.977m7.088-5.155h-10.31" stroke="#FFC635" stroke-width="3" stroke-linecap="round" stroke-linejoin="round"/><path d="M24.203 16.113v-1.5h-1.5v1.5h1.5zm7.637 0h1.5v-1.5h-1.5v1.5zm-7.637 14.319h-1.5v1.5h1.5v-1.5zm7.614 0l.005-1.5h-.005v1.5zm.023-14.32h-1.5v1.5h1.5v-1.5zm-7.637 1.5h7.637v-3h-7.637v3zm1.5 12.82v-14.32h-3v14.32h3zm6.114-1.5h-7.614v3h7.614v-3zm.023 0h-.018l-.01 3h.028v-3zm5.66-5.66a5.66 5.66 0 0 1-5.66 5.66v3a8.66 8.66 0 0 0 8.66-8.66h-3zm-5.66-5.66a5.66 5.66 0 0 1 5.66 5.66h3a8.66 8.66 0 0 0-8.66-8.66v3zm-1.5-1.5h3-3z" fill="#FFC635"/><circle cx="29" cy="29" r="27" stroke="#EEE" stroke-width="3"/></svg>