<svg xmlns="http://www.w3.org/2000/svg"><symbol viewBox="0 0 22 13" id="arrow-down" xmlns="http://www.w3.org/2000/svg"><path d="M2 2.72L10.28 11l9-9" stroke-width="4" stroke-linecap="round" stroke-linejoin="round"/></symbol><symbol viewBox="0 0 13 22" id="arrow-left" xmlns="http://www.w3.org/2000/svg"><path d="M11 2l-9 9 9 9" stroke-width="3" stroke-linecap="round" stroke-linejoin="round"/></symbol><symbol viewBox="0 0 16 11" id="arrow-lg" xmlns="http://www.w3.org/2000/svg"><path d="M15 5.5H1m0 0l4-4m-4 4l4 4" stroke-width="2" stroke-linecap="round" stroke-linejoin="round"/></symbol><symbol viewBox="0 0 22 13" id="arrow-up" xmlns="http://www.w3.org/2000/svg"><path d="M20 11l-9-9-9 9" stroke-width="4" stroke-linecap="round" stroke-linejoin="round"/></symbol><symbol viewBox="0 0 22 23" id="border" xmlns="http://www.w3.org/2000/svg"><path d="M21.94 16.09a1.63 1.63 0 0 0-1.55-1.59.41.41 0 0 1-.33-.2 1.22 1.22 0 0 0-1.06-.63 1.78 1.78 0 0 0-.43.06h-.1a.42.42 0 0 1-.34-.17 1.22 1.22 0 0 0-1.07-.56h-.39a.52.52 0 0 1-.52-.44V10a1 1 0 1 0-1.93 0v6.38c0 .5-.28.86-.71.86a.58.58 0 0 1-.33-.1 16.26 16.26 0 0 0-1.83-.87 1 1 0 0 0-.41-.09 1 1 0 0 0-.4 1.9c1.13.76 2.58 1.18 3.13 2 .35.54 1.08 2.05 1.36 2.65a.41.41 0 0 0 .38.23h4.45a.41.41 0 0 0 .41-.37l.24-1.84a.48.48 0 0 1 .06-.18c1.23-1.92 1.58-3.19 1.37-4.48z"/><path d="M4.17 20a4.73 4.73 0 0 1-.93-.1 4.08 4.08 0 0 1-1.16-.46 3.71 3.71 0 0 1-.71-.52 4 4 0 0 1-.29-.29 3.71 3.71 0 0 1-.52-.71 4.08 4.08 0 0 1-.46-1.16 4.73 4.73 0 0 1-.1-.93v-4.16a2.5 2.5 0 0 1 2.5 2.5v1.66a1.58 1.58 0 0 0 0 .38 2.49 2.49 0 0 1 0 1.3 2.49 2.49 0 0 1 1.3-.05 1.58 1.58 0 0 0 .38 0h1.65A2.5 2.5 0 0 1 8.33 20zM8.33 0a2.5 2.5 0 0 1-2.5 2.5H4.17a1.58 1.58 0 0 0-.38 0 2.49 2.49 0 0 1-1.3 0 2.49 2.49 0 0 1 0 1.3 1.58 1.58 0 0 0 0 .38v1.65A2.5 2.5 0 0 1 0 8.33V4.17a4.73 4.73 0 0 1 .1-.93 4.08 4.08 0 0 1 .46-1.16 3.71 3.71 0 0 1 .52-.71 4 4 0 0 1 .29-.29 3.71 3.71 0 0 1 .71-.52A4.08 4.08 0 0 1 3.24.1a4.73 4.73 0 0 1 .93-.1zm3.34 0a2.5 2.5 0 0 0 2.5 2.5h1.66a1.58 1.58 0 0 1 .38 0 2.49 2.49 0 0 0 1.3 0 2.49 2.49 0 0 0-.05 1.3 1.58 1.58 0 0 1 0 .38v1.65A2.5 2.5 0 0 0 20 8.33V4.17a4.73 4.73 0 0 0-.1-.93 4.08 4.08 0 0 0-.46-1.16 3.71 3.71 0 0 0-.52-.71 4 4 0 0 0-.29-.29 3.71 3.71 0 0 0-.71-.52A4.08 4.08 0 0 0 16.76.1a4.73 4.73 0 0 0-.93-.1z" fill-rule="evenodd"/></symbol><symbol viewBox="0 0 24 24" id="castle" xmlns="http://www.w3.org/2000/svg"><path d="M.67 2.49a5.17 5.17 0 0 0-.55 1.4A5 5 0 0 0 0 5v5a3 3 0 0 0 3-3V5a2.14 2.14 0 0 1 0-.45A3 3 0 0 0 3 3a3 3 0 0 0 1.56.06A2.14 2.14 0 0 1 5 3h2a3 3 0 0 0 3-3H5a5 5 0 0 0-1.11.12 5.17 5.17 0 0 0-1.4.55 5.19 5.19 0 0 0-.85.63c-.12.11-.23.22-.34.34a5.19 5.19 0 0 0-.63.85zM14 0a3 3 0 0 0 3 3h2a2.14 2.14 0 0 1 .45 0A3 3 0 0 0 21 3a3 3 0 0 0 0 1.55A2.14 2.14 0 0 1 21 5v2a3 3 0 0 0 3 3V5a5 5 0 0 0-.12-1.11 5.17 5.17 0 0 0-.55-1.4 5.19 5.19 0 0 0-.63-.85c-.11-.12-.22-.23-.34-.34A4.88 4.88 0 0 0 20.11.12 5 5 0 0 0 19 0zm10 14a3 3 0 0 0-3 3v2a2.14 2.14 0 0 1-.05.45A3 3 0 0 0 21 21a3 3 0 0 0-1.55 0 2.14 2.14 0 0 1-.45 0h-2a3 3 0 0 0-3 3h5a5 5 0 0 0 1.11-.12 4.88 4.88 0 0 0 2.25-1.18c.12-.11.23-.22.34-.34a4.88 4.88 0 0 0 1.18-2.25A5 5 0 0 0 24 19zM10 24a3 3 0 0 0-3-3H5a2.14 2.14 0 0 1-.45 0A3 3 0 0 0 3 21a3 3 0 0 0 .06-1.56A2.14 2.14 0 0 1 3 19v-2a3 3 0 0 0-3-3v5a5 5 0 0 0 .12 1.11 4.88 4.88 0 0 0 1.18 2.25c.11.12.22.23.34.34a5.19 5.19 0 0 0 .85.63 5.17 5.17 0 0 0 1.4.55A5 5 0 0 0 5 24z" fill-rule="evenodd"/><rect x="8" y="11" width="8" height="6" rx="1"/><path d="M14 12V9a1 1 0 0 0-1-1h-2a1 1 0 0 0-1 1v3" stroke-width="2"/></symbol><symbol viewBox="0 0 29 25" id="chat" xmlns="http://www.w3.org/2000/svg"><path fill-rule="evenodd" clip-rule="evenodd" d="M0 17.61c0 1.342 1.104 2.429 2.468 2.429H6.17v3.747c0 .674.556 1.214 1.234 1.214.346 0 .66-.14.882-.364l4.671-4.597h13.575c1.364 0 2.468-1.087 2.468-2.429V2.429C29 1.087 27.896 0 26.532 0H2.468C1.104 0 0 1.087 0 2.429v15.18zm7.404-6.983c0-.838.691-1.518 1.543-1.518.851 0 1.542.68 1.542 1.518s-.69 1.518-1.542 1.518c-.852 0-1.543-.68-1.543-1.518zm5.553 0c0-.838.692-1.518 1.543-1.518s1.543.68 1.543 1.518-.691 1.518-1.543 1.518c-.851 0-1.543-.68-1.543-1.518zm5.554 0c0-.838.69-1.518 1.542-1.518.852 0 1.543.68 1.543 1.518s-.691 1.518-1.543 1.518a1.53 1.53 0 0 1-1.542-1.518z"/></symbol><symbol viewBox="0 0 16 17" id="clock" xmlns="http://www.w3.org/2000/svg"><path fill-rule="evenodd" clip-rule="evenodd" d="M8 0C3.582 0 0 3.583 0 8.002a8.001 8.001 0 1 0 16 0A8.001 8.001 0 0 0 8 0zm2.942 11.142l-.233.234a.535.535 0 0 1-.726.019L6.97 8.758a1.191 1.191 0 0 1-.347-.834l.28-4.757a.534.534 0 0 1 .526-.5h.329a.53.53 0 0 1 .524.5l.23 3.956c.013.276.174.667.356.873l2.096 2.42a.538.538 0 0 1-.02.726z"/></symbol><symbol viewBox="0 0 12 12" id="edit" xmlns="http://www.w3.org/2000/svg"><path d="M10.818 3.183a5.805 5.805 0 0 0-2.009-1.991L9.5.5s1 0 1.5.5.5 1.5.5 1.5l-.682.683zM5 9H3V7l.24-.24a4.193 4.193 0 0 1 2 2L5 9zm5.24-5.24L5.817 8.182a5.805 5.805 0 0 0-2.009-1.991L8.24 1.76a4.177 4.177 0 0 1 2 2zM2 2v8h8V6.5l1.5-1.519V10.5a1 1 0 0 1-1 1h-9a1 1 0 0 1-1-1v-9a1 1 0 0 1 1-1h5.505L5.505 2H2z"/></symbol><symbol viewBox="0 0 24 24" id="home" xmlns="http://www.w3.org/2000/svg"><path d="M23.175 10.5L21 8.326V3c0-.825-.675-1.5-1.5-1.5H18c-.825 0-1.5.675-1.5 1.5v.83l-3-2.998C13.09.447 12.716 0 12 0s-1.09.446-1.5.833L.825 10.5C.357 10.988 0 11.343 0 12c0 .845.648 1.5 1.5 1.5H3v9c0 .825.675 1.5 1.5 1.5H9v-7.5c0-.825.675-1.5 1.5-1.5h3c.825 0 1.5.675 1.5 1.5V24h4.5c.825 0 1.5-.675 1.5-1.5v-9h1.5c.852 0 1.5-.655 1.5-1.5 0-.657-.357-1.012-.825-1.5z"/></symbol><symbol viewBox="0 0 26 20" id="home2" xmlns="http://www.w3.org/2000/svg"><path d="M22.313 8.75L20.5 6.939V2.5c0-.688-.563-1.25-1.25-1.25H18c-.688 0-1.25.563-1.25 1.25v.691L14.25.694C13.909.37 13.596 0 13 0s-.909.371-1.25.694L3.687 8.75C3.297 9.156 3 9.453 3 10c0 .704.54 1.25 1.25 1.25H5.5v7.5c0 .688.563 1.25 1.25 1.25h3.75v-6.25c0-.688.563-1.25 1.25-1.25h2.5c.688 0 1.25.563 1.25 1.25V20h3.75c.688 0 1.25-.563 1.25-1.25v-7.5h1.25c.71 0 1.25-.546 1.25-1.25 0-.547-.297-.844-.688-1.25z"/><path d="M6 14.333H1M1 12v5.5M1 19v-1.5m0 0h5m14-3.167h5M25 12v5.5m0 1.5v-1.5m0 0h-5" stroke-width="2" stroke-linecap="round" stroke-linejoin="round"/></symbol><symbol viewBox="0 0 23 23" id="list" xmlns="http://www.w3.org/2000/svg"><path d="M19.974 17.553H11.5a2.424 2.424 0 0 0-2.421 2.42 2.423 2.423 0 0 0 2.42 2.422h8.475a2.423 2.423 0 0 0 2.42-2.421 2.423 2.423 0 0 0-2.42-2.421zm0-8.474H11.5A2.423 2.423 0 0 0 9.079 11.5a2.424 2.424 0 0 0 2.42 2.421h8.475a2.423 2.423 0 0 0 2.42-2.421 2.423 2.423 0 0 0-2.42-2.421zm0-8.474H11.5a2.423 2.423 0 0 0-2.421 2.421 2.423 2.423 0 0 0 2.42 2.421h8.475a2.423 2.423 0 0 0 2.42-2.42 2.423 2.423 0 0 0-2.42-2.422zM3.026 23a3.026 3.026 0 1 0 0-6.053 3.026 3.026 0 0 0 0 6.053zm0-8.474a3.026 3.026 0 1 0 0-6.052 3.026 3.026 0 0 0 0 6.052zm0-8.473a3.026 3.026 0 1 0 0-6.053 3.026 3.026 0 0 0 0 6.053z"/></symbol><symbol viewBox="0 0 12 16" id="location" xmlns="http://www.w3.org/2000/svg"><path fill-rule="evenodd" clip-rule="evenodd" d="M6 16c1.5 0 6-6.686 6-10A6 6 0 1 0 0 6c0 3.314 4.5 10 6 10zm0-7a3 3 0 1 0 0-6 3 3 0 0 0 0 6z"/></symbol><symbol viewBox="0 0 56 46" id="mail" xmlns="http://www.w3.org/2000/svg"><path fill-rule="evenodd" clip-rule="evenodd" d="M27.534 25.208C23.06 25.208 0 6.625 0 6.625V4.583A4.586 4.586 0 0 1 4.588 0H50.48a4.586 4.586 0 0 1 4.59 4.583l-.037 2.292s-22.809 18.333-27.5 18.333zm0 6.302c4.907 0 27.5-17.76 27.5-17.76l.037 27.5a4.586 4.586 0 0 1-4.59 4.583H4.588A4.587 4.587 0 0 1 0 41.25l.037-27.5c-.003 0 23.022 17.76 27.497 17.76z"/></symbol><symbol viewBox="0 0 30 29" id="map" xmlns="http://www.w3.org/2000/svg"><path d="M25.52 17.677v8.679l-6.96-1.74V20.94l-2.32-3.264v6.97l-5.8 1.658V7.867l.013-.004c.02-.857.147-1.688.364-2.483l-.914.229a2.329 2.329 0 0 1-1.201-.02l-7.15-2.044A1.219 1.219 0 0 0 0 4.717v19.929a2.32 2.32 0 0 0 1.682 2.23l7.186 2.054c.27.077.555.077.826 0l7.13-2.037a2.34 2.34 0 0 1 1.201-.02l8.304 2.077a1.218 1.218 0 0 0 1.513-1.182V15.827l-2.32 1.85zm-17.4 8.627l-5.8-1.657V6.18l5.8 1.656v18.469z"/><path d="M20.88 0a8.12 8.12 0 0 0-8.12 8.12c0 5.342 5.28 7.825 5.94 8.42.676.608 1.234 1.828 1.46 2.6a.766.766 0 0 0 .72.573.765.765 0 0 0 .721-.573c.225-.771.783-1.992 1.46-2.6.66-.595 5.94-3.078 5.94-8.42A8.12 8.12 0 0 0 20.881 0zm0 10.44a2.32 2.32 0 1 1 0-4.638 2.32 2.32 0 0 1 0 4.639z"/></symbol><symbol viewBox="0 0 24 26" id="pawn" xmlns="http://www.w3.org/2000/svg"><path fill-rule="evenodd" clip-rule="evenodd" d="M14.71 8.104c.846-1.04 1.493-1.834 1.493-3.13a4.357 4.357 0 1 0-8.715 0c0 1.174.54 1.856 1.152 2.631.226.285.46.583.683.922.465.71.407 1.02.267 1.769-.109.582-.267 1.428-.267 2.933 0 1.937-2.936 2.275-5.503 2.2-1.964-.059-3.737 1.45-3.71 3.416a3.14 3.14 0 0 0 3.14 3.099h17.596A3.155 3.155 0 0 0 24 18.789c0-1.95-1.756-3.437-3.704-3.367-2.715.098-5.928-.206-5.928-2.193 0-1.505-.193-2.351-.325-2.933-.17-.748-.241-1.06.325-1.77.117-.146.231-.286.342-.422zM9.933 5.082a1.93 1.93 0 0 1 1.931-1.931.58.58 0 1 0 0-1.159 3.09 3.09 0 0 0-3.09 3.09.58.58 0 1 0 1.159 0z"/><rect x=".103" y="23.549" width="23.851" height="1.835" rx=".917"/></symbol><symbol viewBox="0 0 9 11" id="person" xmlns="http://www.w3.org/2000/svg"><path d="M0 9.125C0 7.399 1.4 6 3.125 6h2.75C7.601 6 9 7.4 9 9.125 9 10.161 8.16 11 7.125 11h-5.25A1.875 1.875 0 0 1 0 9.125z"/><circle cx="4.5" cy="2.5" r="2.5"/></symbol><symbol viewBox="0 0 14 14" id="phone" xmlns="http://www.w3.org/2000/svg"><path d="M14 11.057c0 .179-.033.412-.1.7a3.95 3.95 0 0 1-.208.682c-.14.331-.544.683-1.213 1.054-.623.338-1.24.507-1.85.507-.179 0-.353-.012-.522-.035a4.292 4.292 0 0 1-.571-.124 8.102 8.102 0 0 1-.473-.144 38.693 38.693 0 0 1-.552-.204c-.265-.1-.427-.16-.487-.18a9.004 9.004 0 0 1-1.74-.824c-.848-.524-1.725-1.238-2.63-2.143-.905-.905-1.619-1.782-2.143-2.63a9.006 9.006 0 0 1-.825-1.74c-.02-.06-.08-.222-.179-.487-.1-.266-.167-.45-.204-.552a8.107 8.107 0 0 1-.144-.473 4.298 4.298 0 0 1-.124-.571A3.836 3.836 0 0 1 0 3.37c0-.61.169-1.227.507-1.85C.878.851 1.23.447 1.561.308A3.95 3.95 0 0 1 2.242.1c.289-.067.522-.1.701-.1.093 0 .163.01.209.03.12.04.295.291.527.756.073.125.172.304.298.536.126.232.242.443.348.632.106.189.21.366.309.532.02.026.077.11.174.248.096.14.167.257.213.353a.64.64 0 0 1 .07.284c0 .132-.095.298-.283.497a4.847 4.847 0 0 1-.617.547 5.99 5.99 0 0 0-.616.527c-.19.185-.284.338-.284.457 0 .06.017.134.05.224s.061.157.084.204c.024.046.07.126.14.238.07.113.107.176.114.19.504.907 1.08 1.686 1.73 2.336.65.65 1.429 1.226 2.337 1.73l.189.114c.112.07.192.116.238.14.047.023.115.05.204.084a.68.68 0 0 0 .224.05c.12 0 .272-.095.457-.284.186-.189.362-.394.527-.616.166-.222.348-.428.547-.617.199-.188.365-.283.497-.283.093 0 .188.023.284.07.096.046.213.117.353.213l.248.174c.166.1.343.203.532.309.19.106.4.222.632.348.232.126.41.225.536.298.464.232.716.408.756.527.02.046.03.116.03.209z"/></symbol><symbol viewBox="0 0 26 21" id="plot" xmlns="http://www.w3.org/2000/svg"><path d="M1.5 19.5v-9m0 0v-9l7 4.5zm23 9v-9m0 0v-9l-7 4.5z" stroke-linecap="round" stroke-linejoin="round" stroke-width="3"/><path d="M5.5 14.5h15" stroke-linecap="round" stroke-linejoin="round" stroke-width="3" stroke-dasharray="1.14 5"/></symbol><symbol viewBox="0 0 33.5 33.5" id="zoom" xmlns="http://www.w3.org/2000/svg"><circle cx="13.5" cy="13.5" r="12" stroke-width="3"/><path d="M22 22l10 10" stroke-linecap="round" stroke-linejoin="round" stroke-width="3"/></symbol></svg>